<?xml version="1.0" encoding="utf-8"?>
<!-- Generator: Adobe Illustrator 16.0.0, SVG Export Plug-In . SVG Version: 6.00 Build 0)  -->
<!DOCTYPE svg PUBLIC "-//W3C//DTD SVG 1.1//EN" "http://www.w3.org/Graphics/SVG/1.1/DTD/svg11.dtd">
<svg version="1.1" id="Layer_1" xmlns="http://www.w3.org/2000/svg" xmlns:xlink="http://www.w3.org/1999/xlink" x="0px" y="0px"
	 width="25px" height="25px" viewBox="0 0 25 25" enable-background="new 0 0 25 25" xml:space="preserve">
<g>
	<path fill-rule="evenodd" clip-rule="evenodd" d="M12.063,23.096c-3.354-4.092-6.251-7.932-7.241-12.802
		C4.175,7.103,5.284,4.396,8.126,2.666C10.731,1.08,13.447,1.162,16,2.829c2.781,1.816,3.857,4.511,3.154,7.698
		C18.104,15.289,15.173,19.014,12.063,23.096z M11.332,21.23c0.421,0.012,0.843,0.023,1.264,0.035
		c1.804-3.248,3.842-6.395,5.339-9.777c1.368-3.087,0.261-6.084-2.248-7.84c-2.244-1.57-5.26-1.508-7.528,0.155
		C5.755,5.565,4.684,8.47,6.002,11.443C7.502,14.828,9.532,17.977,11.332,21.23z"/>
	<path fill-rule="evenodd" clip-rule="evenodd" d="M11.89,4.734c2.453-0.01,4.516,2.033,4.449,4.407
		c-0.065,2.298-2.091,4.244-4.374,4.201C9.653,13.299,7.679,11.33,7.662,9.05C7.644,6.728,9.588,4.744,11.89,4.734z M15.389,9.006
		c-0.136-1.475-0.793-2.962-2.831-3.237c-2.086-0.282-3.439,0.746-3.895,2.771c-0.389,1.727,1.074,3.583,2.882,3.843
		C13.273,12.632,15.116,11.177,15.389,9.006z"/>
</g>
</svg>
