<svg width="21" height="26" viewBox="0 0 21 26" fill="none" xmlns="http://www.w3.org/2000/svg">
<g id="Traget">
<path id="Vector" fill-rule="evenodd" clip-rule="evenodd" d="M10.4012 25.7931C7.81227 23.046 5.60836 20.1262 3.63715 17.0478C2.31789 14.9867 1.56671 12.6891 0.430533 10.5424C-0.80489 8.20909 0.913066 6.06554 2.20495 4.27354C4.67067 0.849762 9.69449 -1.65624 15.7587 1.7131C20.0861 4.11798 21.2736 7.32865 20.6867 11.3062C20.3821 13.372 19.3554 15.5638 17.978 17.2375C15.8733 19.7949 14.0082 22.5264 11.6828 24.9329C11.4296 25.1942 11.0531 25.3622 10.4012 25.7931ZM10.7263 23.3026C13.7002 19.9022 16.2566 16.4084 18.3322 12.6829C20.4249 8.92465 19.7199 6.62243 16.2788 3.78354C13.4589 1.45643 9.3882 0.921317 6.44338 2.80976C2.52664 5.32198 1.74124 7.03621 2.81411 10.9718C4.10258 15.6929 7.13809 19.5382 10.7263 23.3026Z" fill="#4E4E4E"/>
<path id="Vector_2" fill-rule="evenodd" clip-rule="evenodd" d="M4.81269 8.97443C4.35411 6.36888 7.86531 3.76954 10.6082 3.6871C13.2348 3.60777 16.3422 6.35954 16.4414 9.29021C16.5287 11.9487 13.5137 14.4469 10.5535 14.45C7.22535 14.4515 4.80242 12.1415 4.81269 8.97443ZM14.6225 9.16576C14.6413 7.05799 13.014 5.45265 10.7913 5.38421C8.64558 5.31888 6.0618 7.42043 6.07036 9.22799C6.07549 10.9375 8.17331 12.9007 10.0384 12.9473C12.4733 13.0064 14.6054 11.2471 14.6225 9.16576Z" fill="#4E4E4E"/>
</g>
</svg>
