<svg width="25" height="25" viewBox="0 0 25 25" fill="none" xmlns="http://www.w3.org/2000/svg">
<path fill-rule="evenodd" clip-rule="evenodd" d="M12.063 23.096C8.709 19.004 5.812 15.164 4.822 10.294C4.175 7.10301 5.284 4.39601 8.126 2.66601C10.731 1.08001 13.447 1.16201 16 2.82901C18.781 4.64501 19.857 7.34001 19.154 10.527C18.104 15.289 15.173 19.014 12.063 23.096ZM11.332 21.23C11.753 21.242 12.175 21.253 12.596 21.265C14.4 18.017 16.438 14.87 17.935 11.488C19.303 8.40101 18.196 5.40401 15.687 3.64801C13.443 2.07801 10.427 2.14001 8.159 3.80301C5.755 5.56501 4.684 8.47001 6.002 11.443C7.502 14.828 9.532 17.977 11.332 21.23Z" fill="black"/>
<path fill-rule="evenodd" clip-rule="evenodd" d="M11.89 4.73401C14.343 4.72401 16.406 6.76701 16.339 9.14101C16.274 11.439 14.248 13.385 11.965 13.342C9.65299 13.299 7.67899 11.33 7.66199 9.05001C7.64399 6.72801 9.58799 4.74401 11.89 4.73401ZM15.389 9.00601C15.253 7.53101 14.596 6.04401 12.558 5.76901C10.472 5.48701 9.11899 6.51501 8.66299 8.54001C8.27399 10.267 9.73699 12.123 11.545 12.383C13.273 12.632 15.116 11.177 15.389 9.00601Z" fill="black"/>
</svg>
